<?xml version="1.0" encoding="UTF-8"?>
<svg id="Layer_1" data-name="Layer 1" xmlns="http://www.w3.org/2000/svg" viewBox="0 0 1701 1071">
  <defs>
    <style>
      .cls-1 {
        fill: #111;
      }

      .cls-2 {
        fill: #fff;
      }

      .cls-3 {
        fill: #de5123;
      }
    </style>
  </defs>
  <rect class="cls-1" x="-5.5" y="-5.45" width="1712" height="1081.9"/>
  <g>
    <g>
      <path class="cls-2" d="M1001.08,423.58c4.63-24.26-15.17-29.12-40.85-26.1-39.16,4.61-92.01,27.53-92.92,27.92,46.61-37.53,92.77-51.33,92.77-51.33l-1.16-3.28c2.33-.22,4.57-.38,6.71-.48-.26-3.97-3.12-7.96-9.47-11.87-28.52-17.58-70.76-16.56-95.7-13.95l-40.54-28.12s112.13,1.2,150.78,34.88c5.87,5.12,7.33,11.65,5.58,19.05,54.94,2.83,24.8,53.27,24.8,53.27Z"/>
      <path class="cls-2" d="M936.86,372.17c-8.84-1.24-14.45-8.82-13.75-16.95,0,0,13.21,9.11,22.19,9.88,0,0,.4,8.3-8.43,7.07Z"/>
      <path class="cls-2" d="M869.05,558.88s-28.37-5.87-61.99-43.58c29.33-.9,43.82-12.55,50.46-26.73-.15,20.78,1.45,52.89,11.53,70.3Z"/>
      <path class="cls-2" d="M836.46,558.88s-63.04-7.61-90.94-88.23c.38.45,12.63,14.78,41.48,30.7,0,0,10.54,23.42,49.45,57.53Z"/>
      <path class="cls-2" d="M784.82,543.97c-107.49-51.03-85.68-154.95-81.92-169.87v7.58c0,3.59.18,7.08.51,10.47v.03c1.51,15.21,6.16,28.63,12,39.96,5,9.71,10.85,17.92,16.46,24.61,8.56,51.68,52.19,86.61,52.95,87.21Z"/>
      <path class="cls-2" d="M722.85,503.52s-30.52-23.3-25.78-56.7c0,0,.41,23.09,25.78,56.7Z"/>
      <path class="cls-3" d="M902.78,420.52s.01,4.94.03,12.59h-46.82c-1.15-5.36-2.31-8.72-2.31-8.72-16.24,10.99-43.74,6.03-43.74,6.03,11.98,12.91,14.97,32.75.94,41.73-14.03,8.98-31.44,5.62-31.44,5.62,6.41,10.42,12.85,19.53,19.17,27.48,51.3.15,60.25-30.69,59.59-54.32h44.66c.06,28.36.1,66.32-.06,66.32l42.52-17.29v-91.05l-42.52,11.62Z"/>
      <path class="cls-3" d="M858.54,404.23c-17.97,32.03-53.91,10.46-64.38,10.46-6.27,0-20.75-.43-31.36-.52v52.72s-21.3-14.85-34.86-41.2c-5.16-10.03-9.19-21.73-10.5-34.91-.29-2.96-.45-6-.45-9.11v-28.41s45.8-.22,45.8,0v39.02h23.16c39.42,0,42.66-50.89-6.52-50.89h-55.39c-14.61,0-32.38-11.84-32.38-26.44h93.16c39.65,0,60.05,13.85,67.35,30.53,10.45,23.85-5.86,53.52-31,56.85,0,0,12.31,9.24,37.36,1.89Z"/>
      <g>
        <polygon points="865.09 339.83 865.09 339.83 865.09 339.83 865.09 339.83"/>
        <polygon points="715.41 432.14 715.41 432.14 715.41 432.14 715.41 432.14"/>
      </g>
    </g>
    <g>
      <g>
        <path class="cls-2" d="M575.7,644.63c2.69,3.4,4.04,7.3,4.04,11.7,0,3.97-.98,7.46-2.92,10.47-1.95,3.01-4.77,5.37-8.45,7.07-3.69,1.7-8.05,2.55-13.08,2.55h-32v-74.22h30.62c5.03,0,9.37.82,13.03,2.45,3.65,1.63,6.41,3.9,8.29,6.81,1.88,2.91,2.82,6.2,2.82,9.89,0,4.32-1.15,7.94-3.46,10.85-2.3,2.91-5.37,4.96-9.2,6.17,4.18.78,7.62,2.87,10.31,6.27ZM538.16,632.83h13.61c3.54,0,6.27-.8,8.19-2.39,1.91-1.6,2.87-3.88,2.87-6.86s-.96-5.28-2.87-6.91c-1.91-1.63-4.64-2.45-8.19-2.45h-13.61v18.61ZM561.61,661.75c2.02-1.7,3.03-4.11,3.03-7.23s-1.06-5.69-3.19-7.5c-2.13-1.81-5-2.71-8.61-2.71h-14.67v19.99h14.99c3.62,0,6.43-.85,8.45-2.55Z"/>
        <path class="cls-2" d="M610.57,602.2v45.93c0,5.03,1.31,8.88,3.93,11.54,2.62,2.66,6.31,3.99,11.06,3.99s8.54-1.33,11.16-3.99c2.62-2.66,3.93-6.5,3.93-11.54v-45.93h14.99v45.83c0,6.31-1.37,11.64-4.09,16-2.73,4.36-6.38,7.64-10.95,9.84-4.57,2.2-9.66,3.3-15.26,3.3s-10.54-1.1-15.05-3.3c-4.5-2.2-8.06-5.48-10.69-9.84-2.62-4.36-3.93-9.69-3.93-16v-45.83h14.89Z"/>
        <path class="cls-2" d="M689.15,602.2v74.22h-14.89v-74.22h14.89Z"/>
        <path class="cls-2" d="M722.96,664.62h24.46v11.8h-39.34v-74.22h14.89v62.41Z"/>
        <path class="cls-2" d="M807.65,606.78c5.92,3.05,10.49,7.39,13.72,13.02,3.22,5.64,4.84,12.17,4.84,19.62s-1.61,13.95-4.84,19.51c-3.23,5.57-7.8,9.87-13.72,12.92-5.92,3.05-12.78,4.57-20.57,4.57h-25.94v-74.22h25.94c7.8,0,14.65,1.52,20.57,4.57ZM804.62,657.39c4.25-4.25,6.38-10.24,6.38-17.97s-2.13-13.77-6.38-18.13c-4.25-4.36-10.28-6.54-18.08-6.54h-10.53v49.02h10.53c7.8,0,13.82-2.13,18.08-6.38Z"/>
        <path class="cls-2" d="M903.18,602.2v74.22h-14.89v-31.58h-31.79v31.58h-14.89v-74.22h14.89v30.52h31.79v-30.52h14.89Z"/>
        <path class="cls-2" d="M967.61,662.28h-29.56l-4.89,14.14h-15.63l26.69-74.32h17.33l26.69,74.32h-15.74l-4.89-14.14ZM963.57,650.37l-10.74-31.05-10.74,31.05h21.48Z"/>
        <path class="cls-2" d="M1101.69,602.2l-20.73,74.22h-17.54l-13.93-52.84-14.57,52.84-17.44.11-19.99-74.32h15.95l13.08,57.63,15.1-57.63h16.59l14.25,57.31,13.18-57.31h16.05Z"/>
        <path class="cls-2" d="M1157.51,676.42l-27.01-33.07v33.07h-14.89v-74.22h14.89v33.28l27.01-33.28h17.97l-30.62,36.79,31.47,37.43h-18.82Z"/>
      </g>
      <g>
        <path class="cls-3" d="M537.31,737.06c-.52.95-1.32,1.72-2.42,2.31-1.1.58-2.49.88-4.16.88h-3.42v7.83h-4.09v-20.39h7.51c1.58,0,2.92.27,4.03.82,1.11.55,1.94,1.3,2.5,2.25.56.95.83,2.04.83,3.24,0,1.09-.26,2.11-.77,3.07ZM533.06,736.17c.54-.52.82-1.24.82-2.18,0-1.99-1.11-2.98-3.33-2.98h-3.24v5.93h3.24c1.13,0,1.97-.26,2.51-.77Z"/>
        <path class="cls-3" d="M548.3,732.38c.85-.49,1.82-.73,2.91-.73v4.3h-1.08c-1.28,0-2.25.3-2.91.91-.65.6-.98,1.66-.98,3.16v8.06h-4.09v-16.19h4.09v2.51c.53-.86,1.21-1.53,2.06-2.02Z"/>
        <path class="cls-3" d="M570.05,741.21h-11.83c.1,1.17.51,2.08,1.23,2.75.72.66,1.61.99,2.66.99,1.52,0,2.6-.65,3.24-1.96h4.41c-.47,1.56-1.36,2.84-2.69,3.84-1.32,1-2.95,1.5-4.88,1.5-1.56,0-2.96-.35-4.19-1.04-1.24-.69-2.2-1.67-2.89-2.94-.69-1.27-1.04-2.73-1.04-4.38s.34-3.15,1.02-4.41c.68-1.27,1.64-2.24,2.86-2.92,1.23-.68,2.64-1.02,4.24-1.02s2.92.33,4.13.99c1.22.66,2.16,1.6,2.83,2.82.67,1.22,1.01,2.62,1.01,4.19,0,.58-.04,1.11-.12,1.58ZM565.93,738.46c-.02-1.05-.4-1.89-1.14-2.53-.74-.63-1.65-.95-2.72-.95-1.01,0-1.86.31-2.56.92s-1.12,1.47-1.27,2.56h7.68Z"/>
        <path class="cls-3" d="M574.29,735.58c.68-1.26,1.63-2.23,2.83-2.92,1.21-.69,2.59-1.04,4.15-1.04,2.01,0,3.67.5,4.98,1.5,1.32,1,2.2,2.41,2.64,4.22h-4.41c-.23-.7-.63-1.25-1.18-1.65-.56-.4-1.24-.6-2.06-.6-1.17,0-2.09.42-2.78,1.27-.68.85-1.02,2.05-1.02,3.61s.34,2.73,1.02,3.58c.68.85,1.61,1.27,2.78,1.27,1.66,0,2.74-.74,3.24-2.22h4.41c-.45,1.75-1.33,3.15-2.66,4.18-1.32,1.03-2.98,1.55-4.97,1.55-1.56,0-2.94-.35-4.15-1.04-1.21-.69-2.15-1.67-2.83-2.92-.68-1.26-1.02-2.72-1.02-4.4s.34-3.14,1.02-4.4Z"/>
        <path class="cls-3" d="M593.35,729.27c-.48-.46-.72-1.03-.72-1.71s.24-1.25.72-1.71c.48-.46,1.08-.69,1.8-.69s1.32.23,1.8.69c.48.46.72,1.03.72,1.71s-.24,1.25-.72,1.71c-.48.46-1.08.69-1.8.69s-1.32-.23-1.8-.69ZM597.16,731.88v16.19h-4.09v-16.19h4.09Z"/>
        <path class="cls-3" d="M605,747.62c-1.05-.48-1.88-1.12-2.5-1.94-.61-.82-.95-1.72-1.01-2.72h4.12c.08.62.38,1.14.92,1.55.54.41,1.2.61,2,.61s1.39-.16,1.83-.47c.44-.31.66-.71.66-1.2,0-.53-.27-.92-.8-1.18-.54-.26-1.39-.55-2.56-.86-1.21-.29-2.2-.59-2.97-.91-.77-.31-1.43-.79-1.99-1.43s-.83-1.51-.83-2.6c0-.9.26-1.71.77-2.45.52-.74,1.26-1.32,2.22-1.75.96-.43,2.1-.64,3.4-.64,1.93,0,3.47.48,4.62,1.45s1.78,2.26,1.9,3.9h-3.92c-.06-.64-.33-1.15-.8-1.53-.48-.38-1.12-.57-1.91-.57-.74,0-1.31.14-1.71.41-.4.27-.6.65-.6,1.14,0,.55.27.96.82,1.24.55.28,1.39.57,2.54.86,1.17.29,2.13.59,2.89.91.76.31,1.42.79,1.97,1.45.56.65.84,1.51.86,2.59,0,.94-.26,1.77-.77,2.51-.52.74-1.26,1.32-2.22,1.74-.96.42-2.09.63-3.38.63s-2.51-.24-3.56-.72Z"/>
        <path class="cls-3" d="M619.74,729.27c-.48-.46-.72-1.03-.72-1.71s.24-1.25.72-1.71c.48-.46,1.08-.69,1.8-.69s1.32.23,1.8.69c.48.46.72,1.03.72,1.71s-.24,1.25-.72,1.71c-.48.46-1.08.69-1.8.69s-1.32-.23-1.8-.69ZM623.55,731.88v16.19h-4.09v-16.19h4.09Z"/>
        <path class="cls-3" d="M631.73,747.3c-1.25-.69-2.23-1.67-2.94-2.94-.71-1.27-1.07-2.73-1.07-4.38s.37-3.12,1.1-4.38,1.73-2.24,2.99-2.94c1.27-.69,2.68-1.04,4.24-1.04s2.97.35,4.24,1.04c1.27.69,2.26,1.67,3,2.94.73,1.27,1.1,2.73,1.1,4.38s-.38,3.12-1.12,4.38c-.75,1.27-1.76,2.25-3.04,2.94-1.28.69-2.7,1.04-4.28,1.04s-2.96-.35-4.21-1.04ZM638.03,744.23c.65-.36,1.17-.9,1.56-1.62s.58-1.6.58-2.63c0-1.54-.4-2.72-1.21-3.55-.81-.83-1.8-1.24-2.97-1.24s-2.15.41-2.94,1.24c-.79.83-1.18,2.01-1.18,3.55s.38,2.72,1.15,3.55,1.74,1.24,2.91,1.24c.74,0,1.44-.18,2.09-.54Z"/>
        <path class="cls-3" d="M662.2,733.48c1.19,1.22,1.78,2.92,1.78,5.1v9.5h-4.09v-8.94c0-1.29-.32-2.27-.96-2.97-.64-.69-1.52-1.04-2.63-1.04s-2.02.35-2.67,1.04c-.65.69-.98,1.68-.98,2.97v8.94h-4.09v-16.19h4.09v2.02c.55-.7,1.24-1.25,2.09-1.65.85-.4,1.78-.6,2.79-.6,1.93,0,3.49.61,4.67,1.83Z"/>
        <path class="cls-3" d="M681.25,730.98v5.11h6.87v3.24h-6.87v5.41h7.74v3.33h-11.83v-20.42h11.83v3.33h-7.74Z"/>
        <path class="cls-3" d="M696.51,747.62c-1.05-.48-1.88-1.12-2.5-1.94-.61-.82-.95-1.72-1.01-2.72h4.12c.08.62.38,1.14.92,1.55.54.41,1.2.61,2,.61s1.39-.16,1.83-.47c.44-.31.66-.71.66-1.2,0-.53-.27-.92-.8-1.18-.54-.26-1.39-.55-2.56-.86-1.21-.29-2.2-.59-2.97-.91-.77-.31-1.43-.79-1.99-1.43s-.83-1.51-.83-2.6c0-.9.26-1.71.77-2.45.52-.74,1.26-1.32,2.22-1.75.96-.43,2.1-.64,3.4-.64,1.93,0,3.47.48,4.62,1.45s1.78,2.26,1.9,3.9h-3.92c-.06-.64-.33-1.15-.8-1.53-.48-.38-1.12-.57-1.91-.57-.74,0-1.31.14-1.71.41-.4.27-.6.65-.6,1.14,0,.55.27.96.82,1.24.55.28,1.39.57,2.54.86,1.17.29,2.13.59,2.89.91.76.31,1.42.79,1.97,1.45.56.65.84,1.51.86,2.59,0,.94-.26,1.77-.77,2.51-.52.74-1.26,1.32-2.22,1.74-.96.42-2.09.63-3.38.63s-2.51-.24-3.56-.72Z"/>
        <path class="cls-3" d="M715.73,735.25v7.83c0,.55.13.94.39,1.18.26.24.71.37,1.33.37h1.9v3.45h-2.57c-3.45,0-5.17-1.67-5.17-5.03v-7.8h-1.93v-3.36h1.93v-4h4.12v4h3.62v3.36h-3.62Z"/>
        <path class="cls-3" d="M723.75,729.27c-.48-.46-.72-1.03-.72-1.71s.24-1.25.72-1.71c.48-.46,1.08-.69,1.8-.69s1.32.23,1.8.69c.48.46.72,1.03.72,1.71s-.24,1.25-.72,1.71c-.48.46-1.08.69-1.8.69s-1.32-.23-1.8-.69ZM727.57,731.88v16.19h-4.09v-16.19h4.09Z"/>
        <path class="cls-3" d="M757.68,733.48c1.22,1.22,1.83,2.92,1.83,5.1v9.5h-4.09v-8.94c0-1.27-.32-2.23-.96-2.91-.64-.67-1.52-1.01-2.63-1.01s-1.99.34-2.64,1.01c-.65.67-.98,1.64-.98,2.91v8.94h-4.09v-8.94c0-1.27-.32-2.23-.96-2.91-.64-.67-1.52-1.01-2.63-1.01s-2.02.34-2.67,1.01c-.65.67-.98,1.64-.98,2.91v8.94h-4.09v-16.19h4.09v1.96c.53-.68,1.2-1.22,2.03-1.61.83-.39,1.74-.58,2.73-.58,1.27,0,2.4.27,3.39.8.99.54,1.76,1.3,2.31,2.29.53-.93,1.29-1.68,2.29-2.25,1-.56,2.09-.85,3.26-.85,1.99,0,3.59.61,4.81,1.83Z"/>
        <path class="cls-3" d="M764.48,735.57c.65-1.27,1.54-2.24,2.66-2.92,1.12-.68,2.37-1.02,3.76-1.02,1.21,0,2.26.24,3.17.73.91.49,1.63,1.1,2.18,1.84v-2.31h4.12v16.19h-4.12v-2.37c-.53.76-1.25,1.39-2.18,1.88-.92.5-1.99.75-3.2.75-1.36,0-2.61-.35-3.73-1.05s-2.01-1.69-2.66-2.97c-.65-1.28-.98-2.74-.98-4.4s.33-3.09.98-4.35ZM775.66,737.42c-.39-.71-.92-1.26-1.58-1.64-.66-.38-1.37-.57-2.13-.57s-1.46.19-2.1.56c-.64.37-1.16.91-1.56,1.62-.4.71-.6,1.55-.6,2.53s.2,1.83.6,2.56c.4.73.92,1.29,1.58,1.68.65.39,1.35.58,2.09.58s1.47-.19,2.13-.57c.66-.38,1.19-.92,1.58-1.64.39-.71.58-1.56.58-2.56s-.19-1.85-.58-2.56Z"/>
        <path class="cls-3" d="M790.3,735.25v7.83c0,.55.13.94.39,1.18.26.24.71.37,1.33.37h1.9v3.45h-2.57c-3.45,0-5.17-1.67-5.17-5.03v-7.8h-1.93v-3.36h1.93v-4h4.12v4h3.62v3.36h-3.62Z"/>
        <path class="cls-3" d="M798.32,729.27c-.48-.46-.72-1.03-.72-1.71s.24-1.25.72-1.71c.48-.46,1.08-.69,1.8-.69s1.32.23,1.8.69c.48.46.72,1.03.72,1.71s-.24,1.25-.72,1.71c-.48.46-1.08.69-1.8.69s-1.32-.23-1.8-.69ZM802.13,731.88v16.19h-4.09v-16.19h4.09Z"/>
        <path class="cls-3" d="M820.98,733.48c1.19,1.22,1.78,2.92,1.78,5.1v9.5h-4.09v-8.94c0-1.29-.32-2.27-.96-2.97-.64-.69-1.52-1.04-2.63-1.04s-2.02.35-2.67,1.04c-.65.69-.98,1.68-.98,2.97v8.94h-4.09v-16.19h4.09v2.02c.55-.7,1.24-1.25,2.09-1.65.85-.4,1.78-.6,2.79-.6,1.93,0,3.49.61,4.67,1.83Z"/>
        <path class="cls-3" d="M837.34,732.34c.92.48,1.64,1.1,2.16,1.85v-2.31h4.12v16.3c0,1.5-.3,2.84-.91,4.02-.6,1.18-1.51,2.11-2.72,2.8-1.21.69-2.67,1.04-4.38,1.04-2.3,0-4.18-.54-5.65-1.61-1.47-1.07-2.3-2.53-2.5-4.38h4.06c.21.74.68,1.33,1.39,1.77.71.44,1.57.66,2.59.66,1.19,0,2.15-.36,2.89-1.07.74-.71,1.11-1.79,1.11-3.23v-2.51c-.53.76-1.25,1.39-2.18,1.9-.92.51-1.98.76-3.17.76-1.36,0-2.61-.35-3.74-1.05-1.13-.7-2.02-1.69-2.67-2.97-.65-1.28-.98-2.74-.98-4.4s.33-3.09.98-4.35c.65-1.27,1.54-2.24,2.66-2.92,1.12-.68,2.37-1.02,3.76-1.02,1.21,0,2.27.24,3.18.72ZM838.92,737.42c-.39-.71-.92-1.26-1.58-1.64-.66-.38-1.37-.57-2.13-.57s-1.46.19-2.1.56c-.64.37-1.16.91-1.56,1.62-.4.71-.6,1.55-.6,2.53s.2,1.83.6,2.56c.4.73.92,1.29,1.58,1.68.65.39,1.35.58,2.09.58s1.47-.19,2.13-.57c.66-.38,1.19-.92,1.58-1.64.39-.71.58-1.56.58-2.56s-.19-1.85-.58-2.56Z"/>
        <path class="cls-3" d="M848.78,747.59c-.48-.46-.72-1.03-.72-1.71s.24-1.25.72-1.71c.48-.46,1.09-.69,1.83-.69s1.32.23,1.78.69c.47.46.7,1.03.7,1.71s-.23,1.25-.7,1.71c-.47.46-1.06.69-1.78.69s-1.35-.23-1.83-.69Z"/>
        <path class="cls-3" d="M878.46,728.93c1.63.84,2.88,2.03,3.77,3.58.89,1.55,1.33,3.35,1.33,5.39s-.44,3.83-1.33,5.36c-.89,1.53-2.14,2.71-3.77,3.55-1.63.84-3.51,1.26-5.65,1.26h-7.13v-20.39h7.13c2.14,0,4.03.42,5.65,1.26ZM877.63,742.84c1.17-1.17,1.75-2.81,1.75-4.94s-.58-3.78-1.75-4.98c-1.17-1.2-2.82-1.8-4.97-1.8h-2.89v13.47h2.89c2.14,0,3.8-.58,4.97-1.75Z"/>
        <path class="cls-3" d="M888.07,729.27c-.48-.46-.72-1.03-.72-1.71s.24-1.25.72-1.71c.48-.46,1.08-.69,1.8-.69s1.32.23,1.8.69c.48.46.72,1.03.72,1.71s-.24,1.25-.72,1.71c-.48.46-1.08.69-1.8.69s-1.32-.23-1.8-.69ZM891.89,731.88v16.19h-4.09v-16.19h4.09Z"/>
        <path class="cls-3" d="M899.72,747.62c-1.05-.48-1.88-1.12-2.5-1.94-.61-.82-.95-1.72-1.01-2.72h4.12c.08.62.38,1.14.92,1.55.54.41,1.2.61,2,.61s1.39-.16,1.83-.47c.44-.31.66-.71.66-1.2,0-.53-.27-.92-.8-1.18-.54-.26-1.39-.55-2.56-.86-1.21-.29-2.2-.59-2.97-.91-.77-.31-1.43-.79-1.99-1.43s-.83-1.51-.83-2.6c0-.9.26-1.71.77-2.45.52-.74,1.26-1.32,2.22-1.75.96-.43,2.1-.64,3.4-.64,1.93,0,3.47.48,4.62,1.45s1.78,2.26,1.9,3.9h-3.92c-.06-.64-.33-1.15-.8-1.53-.48-.38-1.12-.57-1.91-.57-.74,0-1.31.14-1.71.41-.4.27-.6.65-.6,1.14,0,.55.27.96.82,1.24.55.28,1.39.57,2.54.86,1.17.29,2.13.59,2.89.91.76.31,1.42.79,1.97,1.45.56.65.84,1.51.86,2.59,0,.94-.26,1.77-.77,2.51-.52.74-1.26,1.32-2.22,1.74-.96.42-2.09.63-3.38.63s-2.51-.24-3.56-.72Z"/>
        <path class="cls-3" d="M914.15,735.58c.68-1.26,1.63-2.23,2.83-2.92,1.21-.69,2.59-1.04,4.15-1.04,2.01,0,3.67.5,4.98,1.5,1.32,1,2.2,2.41,2.64,4.22h-4.41c-.23-.7-.63-1.25-1.18-1.65-.56-.4-1.24-.6-2.06-.6-1.17,0-2.09.42-2.78,1.27-.68.85-1.02,2.05-1.02,3.61s.34,2.73,1.02,3.58c.68.85,1.61,1.27,2.78,1.27,1.66,0,2.74-.74,3.24-2.22h4.41c-.45,1.75-1.33,3.15-2.66,4.18-1.32,1.03-2.98,1.55-4.97,1.55-1.56,0-2.94-.35-4.15-1.04-1.21-.69-2.15-1.67-2.83-2.92-.68-1.26-1.02-2.72-1.02-4.4s.34-3.14,1.02-4.4Z"/>
        <path class="cls-3" d="M933.22,729.27c-.48-.46-.72-1.03-.72-1.71s.24-1.25.72-1.71c.48-.46,1.08-.69,1.8-.69s1.32.23,1.8.69c.48.46.72,1.03.72,1.71s-.24,1.25-.72,1.71c-.48.46-1.08.69-1.8.69s-1.32-.23-1.8-.69ZM937.03,731.88v16.19h-4.09v-16.19h4.09Z"/>
        <path class="cls-3" d="M948.5,732.37c.92-.5,1.98-.74,3.17-.74,1.38,0,2.63.34,3.75,1.02,1.12.68,2.01,1.65,2.66,2.91s.98,2.71.98,4.37-.33,3.12-.98,4.4-1.54,2.26-2.66,2.97-2.37,1.05-3.75,1.05c-1.19,0-2.24-.24-3.14-.73-.91-.49-1.64-1.1-2.21-1.84v10.02h-4.09v-23.9h4.09v2.34c.53-.74,1.25-1.36,2.18-1.86ZM954.28,737.39c-.4-.71-.93-1.25-1.58-1.62-.65-.37-1.36-.56-2.12-.56s-1.44.19-2.09.57c-.65.38-1.18.93-1.58,1.65-.4.72-.6,1.57-.6,2.54s.2,1.82.6,2.54c.4.72.93,1.27,1.58,1.65.65.38,1.35.57,2.09.57s1.47-.19,2.12-.58c.65-.39,1.18-.94,1.58-1.67.4-.72.6-1.58.6-2.57s-.2-1.82-.6-2.53Z"/>
        <path class="cls-3" d="M967.3,726.45v21.62h-4.09v-21.62h4.09Z"/>
        <path class="cls-3" d="M972.78,729.27c-.48-.46-.72-1.03-.72-1.71s.24-1.25.72-1.71c.48-.46,1.08-.69,1.8-.69s1.32.23,1.8.69c.48.46.72,1.03.72,1.71s-.24,1.25-.72,1.71c-.48.46-1.08.69-1.8.69s-1.32-.23-1.8-.69ZM976.59,731.88v16.19h-4.09v-16.19h4.09Z"/>
        <path class="cls-3" d="M995.44,733.48c1.19,1.22,1.78,2.92,1.78,5.1v9.5h-4.09v-8.94c0-1.29-.32-2.27-.96-2.97-.64-.69-1.52-1.04-2.63-1.04s-2.02.35-2.67,1.04c-.65.69-.98,1.68-.98,2.97v8.94h-4.09v-16.19h4.09v2.02c.55-.7,1.24-1.25,2.09-1.65.85-.4,1.78-.6,2.79-.6,1.93,0,3.49.61,4.67,1.83Z"/>
        <path class="cls-3" d="M1017.21,741.21h-11.83c.1,1.17.51,2.08,1.23,2.75.72.66,1.61.99,2.66.99,1.52,0,2.6-.65,3.24-1.96h4.41c-.47,1.56-1.36,2.84-2.69,3.84-1.32,1-2.95,1.5-4.88,1.5-1.56,0-2.96-.35-4.19-1.04-1.24-.69-2.2-1.67-2.89-2.94-.69-1.27-1.04-2.73-1.04-4.38s.34-3.15,1.02-4.41c.68-1.27,1.64-2.24,2.86-2.92,1.23-.68,2.64-1.02,4.24-1.02s2.92.33,4.13.99c1.22.66,2.16,1.6,2.83,2.82.67,1.22,1.01,2.62,1.01,4.19,0,.58-.04,1.11-.12,1.58ZM1013.09,738.46c-.02-1.05-.4-1.89-1.14-2.53-.74-.63-1.65-.95-2.72-.95-1.01,0-1.86.31-2.56.92s-1.12,1.47-1.27,2.56h7.68Z"/>
        <path class="cls-3" d="M1021.4,735.57c.65-1.27,1.54-2.24,2.67-2.92,1.13-.68,2.39-1.02,3.77-1.02,1.05,0,2.06.23,3.01.69s1.71,1.07,2.28,1.83v-7.68h4.15v21.62h-4.15v-2.4c-.51.8-1.22,1.44-2.13,1.93-.92.49-1.98.73-3.18.73-1.36,0-2.61-.35-3.74-1.05-1.13-.7-2.02-1.69-2.67-2.97-.65-1.28-.98-2.74-.98-4.4s.33-3.09.98-4.35ZM1032.57,737.42c-.39-.71-.92-1.26-1.58-1.64-.66-.38-1.37-.57-2.13-.57s-1.46.19-2.1.56c-.64.37-1.16.91-1.56,1.62-.4.71-.6,1.55-.6,2.53s.2,1.83.6,2.56c.4.73.92,1.29,1.58,1.68.65.39,1.35.58,2.09.58s1.47-.19,2.13-.57c.66-.38,1.19-.92,1.58-1.64.39-.71.58-1.56.58-2.56s-.19-1.85-.58-2.56Z"/>
        <path class="cls-3" d="M1063.36,728.93c1.63.84,2.88,2.03,3.77,3.58.89,1.55,1.33,3.35,1.33,5.39s-.44,3.83-1.33,5.36c-.89,1.53-2.14,2.71-3.77,3.55-1.63.84-3.51,1.26-5.65,1.26h-7.13v-20.39h7.13c2.14,0,4.03.42,5.65,1.26ZM1062.52,742.84c1.17-1.17,1.75-2.81,1.75-4.94s-.58-3.78-1.75-4.98c-1.17-1.2-2.82-1.8-4.97-1.8h-2.89v13.47h2.89c2.14,0,3.8-.58,4.97-1.75Z"/>
        <path class="cls-3" d="M1087.62,741.21h-11.83c.1,1.17.51,2.08,1.23,2.75.72.66,1.61.99,2.66.99,1.52,0,2.6-.65,3.24-1.96h4.41c-.47,1.56-1.36,2.84-2.69,3.84-1.32,1-2.95,1.5-4.88,1.5-1.56,0-2.96-.35-4.19-1.04-1.24-.69-2.2-1.67-2.89-2.94-.69-1.27-1.04-2.73-1.04-4.38s.34-3.15,1.02-4.41c.68-1.27,1.64-2.24,2.86-2.92,1.23-.68,2.64-1.02,4.24-1.02s2.92.33,4.13.99c1.22.66,2.16,1.6,2.83,2.82.67,1.22,1.01,2.62,1.01,4.19,0,.58-.04,1.11-.12,1.58ZM1083.5,738.46c-.02-1.05-.4-1.89-1.14-2.53-.74-.63-1.65-.95-2.72-.95-1.01,0-1.86.31-2.56.92s-1.12,1.47-1.27,2.56h7.68Z"/>
        <path class="cls-3" d="M1095.98,726.45v21.62h-4.09v-21.62h4.09Z"/>
        <path class="cls-3" d="M1101.46,729.27c-.48-.46-.72-1.03-.72-1.71s.24-1.25.72-1.71c.48-.46,1.08-.69,1.8-.69s1.32.23,1.8.69c.48.46.72,1.03.72,1.71s-.24,1.25-.72,1.71c-.48.46-1.08.69-1.8.69s-1.32-.23-1.8-.69ZM1105.27,731.88v16.19h-4.09v-16.19h4.09Z"/>
        <path class="cls-3" d="M1117.22,744.3l4.09-12.42h4.35l-5.99,16.19h-4.97l-5.96-16.19h4.38l4.09,12.42Z"/>
        <path class="cls-3" d="M1144.07,741.21h-11.83c.1,1.17.51,2.08,1.23,2.75.72.66,1.61.99,2.66.99,1.52,0,2.6-.65,3.24-1.96h4.41c-.47,1.56-1.36,2.84-2.69,3.84-1.32,1-2.95,1.5-4.88,1.5-1.56,0-2.96-.35-4.19-1.04-1.24-.69-2.2-1.67-2.89-2.94-.69-1.27-1.04-2.73-1.04-4.38s.34-3.15,1.02-4.41c.68-1.27,1.64-2.24,2.86-2.92,1.23-.68,2.64-1.02,4.24-1.02s2.92.33,4.13.99c1.22.66,2.16,1.6,2.83,2.82.67,1.22,1.01,2.62,1.01,4.19,0,.58-.04,1.11-.12,1.58ZM1139.95,738.46c-.02-1.05-.4-1.89-1.14-2.53-.74-.63-1.65-.95-2.72-.95-1.01,0-1.86.31-2.56.92s-1.12,1.47-1.27,2.56h7.68Z"/>
        <path class="cls-3" d="M1154.49,732.38c.85-.49,1.82-.73,2.91-.73v4.3h-1.08c-1.28,0-2.25.3-2.91.91-.65.6-.98,1.66-.98,3.16v8.06h-4.09v-16.19h4.09v2.51c.53-.86,1.21-1.53,2.06-2.02Z"/>
        <path class="cls-3" d="M1176.8,731.88l-10.02,23.84h-4.35l3.51-8.06-6.49-15.78h4.59l4.18,11.31,4.24-11.31h4.35Z"/>
      </g>
      <rect class="cls-2" x="523.18" y="703.4" width="654.63" height="2.41"/>
    </g>
  </g>
</svg>