<svg width="2500" height="2500" viewBox="0 0 2500 2500" fill="none" xmlns="http://www.w3.org/2000/svg">
<g clip-path="url(#clip0_717_722)">
<rect width="2500" height="2500" fill="#111111"/>
<path d="M2335.93 2567.86C2428.01 2086.13 2034.23 1989.63 1523.5 2049.6C744.682 2141.14 -306.404 2596.26 -324.502 2604C602.483 1858.77 1520.52 1584.74 1520.52 1584.74L1497.45 1519.61C1543.79 1515.25 1588.34 1512.07 1630.9 1510.08C1625.73 1431.25 1568.85 1352.02 1442.56 1274.38C875.347 925.296 35.2743 945.55 -460.735 997.376L-1267 439C-1267 439 963.054 462.828 1731.73 1131.61C1848.47 1233.28 1877.51 1362.94 1842.71 1509.88C2935.36 1566.08 2335.93 2567.66 2335.93 2567.66V2567.86Z" fill="url(#paint0_linear_717_722)"/>
<path d="M1058.74 1547.01C882.926 1522.39 771.353 1371.87 785.275 1210.43C785.275 1210.43 1048 1391.33 1226.59 1406.62C1226.59 1406.62 1234.55 1571.43 1058.94 1547.01H1058.74Z" fill="url(#paint1_linear_717_722)"/>
</g>
<defs>
<linearGradient id="paint0_linear_717_722" x1="2369.05" y1="1541.97" x2="-1193.5" y2="1522.77" gradientUnits="userSpaceOnUse">
<stop stop-color="#DE5123"/>
<stop offset="1" stop-opacity="0"/>
</linearGradient>
<linearGradient id="paint1_linear_717_722" x1="2369.05" y1="1541.97" x2="-1193.5" y2="1522.77" gradientUnits="userSpaceOnUse">
<stop stop-color="#DE5123"/>
<stop offset="1" stop-opacity="0"/>
</linearGradient>
<clipPath id="clip0_717_722">
<rect width="2500" height="2500" fill="white"/>
</clipPath>
</defs>
</svg>
