<svg xmlns="http://www.w3.org/2000/svg" width="296" height="58" viewBox="0 0 296 58" fill="none"><path d="M57.6746 12.8166H32.0415V0H12.8166V25.6331H0V44.858H25.6331V57.6746H44.858V32.0414H57.6746V12.8166ZM19.2222 6.40828H25.6306V25.6331H19.2222V6.40828ZM6.40569 38.4523V32.044H25.6306V38.4523H6.40569ZM38.4497 51.2689H32.0415V32.044H38.4497V51.2689ZM51.2663 25.6331H32.0415V19.2249H51.2663V25.6331Z" fill="url(#paint0_linear_364_765)"></path><path d="M104.59 13.0808L95.1576 38.2579H92.9602L85.9378 22.1944L78.9516 38.2579H76.7542L67.2856 13.0808H72.7455L78.2054 28.9655L84.764 13.0808H87.1402L93.7013 29.0018L99.1275 13.0808H104.59Z" fill="#143228"></path><path d="M105.976 29.9242V18.8257H110.835V29.3567C110.835 32.9379 112.146 34.1791 114.841 34.1791C116.686 34.1791 118.14 33.6117 119.308 32.6192V18.8257H124.167V38.079H119.557V36.6616C117.678 37.9028 115.372 38.5403 113.317 38.5403C108.104 38.5429 105.976 36.2729 105.976 29.9242Z" fill="#143228"></path><path d="M128.565 18.8257H133.245V20.2432C135.053 19.1782 137.712 18.3982 139.946 18.3982C144.981 18.3982 146.753 20.5619 146.753 26.553V38.0765H141.931V27.2967C141.931 23.8917 140.796 22.7568 138.171 22.7568C136.219 22.7568 134.59 23.4305 133.418 24.2804V38.0739H128.56V18.8257H128.565Z" fill="#143228"></path><path d="M150.018 28.4369C150.018 22.2308 153.599 18.3672 159.45 18.3672C161.295 18.3672 163.529 18.8984 165.123 20.1396V11.3447H169.945V38.0818H165.123V36.6643C163.599 38.0481 161.435 38.5093 159.59 38.5093C153.566 38.5067 150.018 34.5706 150.018 28.4369ZM165.232 32.4068V24.5344C164.06 23.2932 162.252 22.6894 160.479 22.6894C156.968 22.6894 154.947 24.7469 154.947 28.4344C154.947 31.9793 157.038 34.2129 160.407 34.2129C162.288 34.2155 164.024 33.6481 165.232 32.4068Z" fill="#143228"></path><path d="M193.174 29.9243H178.282C178.813 32.7955 180.798 34.3917 183.954 34.3917C186.188 34.3917 188.172 33.5417 189.486 31.9455L192.536 34.5342C190.797 36.9467 187.996 38.4704 183.601 38.4704C177.183 38.4704 173.389 34.5342 173.389 28.4343C173.389 22.3344 177.468 18.3982 183.353 18.3982C189.948 18.3982 193.21 22.5831 193.21 28.5043C193.21 28.9681 193.174 29.9243 193.174 29.9243ZM178.315 26.4157H188.458C188.173 24.3245 186.649 22.4095 183.35 22.4095C180.904 22.4069 178.919 23.6482 178.315 26.4157Z" fill="#143228"></path><path d="M196.863 18.8256H201.722V21.5569C202.999 19.6782 204.984 18.5069 207.607 18.4006C208.032 18.4006 208.529 18.4006 208.918 18.5432V23.8968C208.068 23.648 207.288 23.5418 206.614 23.5418C203.069 23.5418 201.722 26.2005 201.722 28.7555V38.0816H196.863V18.8256Z" fill="#143228"></path><path d="M216.754 36.6617V38.0792H211.968V11.3447H216.754V20.1396C218.384 18.8984 220.584 18.3672 222.427 18.3672C228.314 18.3672 231.859 22.2334 231.859 28.4369C231.859 34.5706 228.348 38.5067 222.32 38.5067C220.444 38.5067 218.317 38.0455 216.754 36.6617ZM226.967 28.4369C226.967 24.7495 224.909 22.692 221.401 22.692C219.662 22.692 217.856 23.2958 216.684 24.537V32.4094C217.856 33.6506 219.628 34.2181 221.507 34.2181C224.876 34.2155 226.967 31.9818 226.967 28.4369Z" fill="#143228"></path><path d="M235.16 29.9242V18.8257H240.019V29.3567C240.019 32.9379 241.33 34.1791 244.025 34.1791C245.87 34.1791 247.324 33.6117 248.492 32.6192V18.8257H253.351V38.079H248.741V36.6616C246.863 37.9028 244.556 38.5403 242.501 38.5403C237.288 38.5429 235.16 36.2729 235.16 29.9242Z" fill="#143228"></path><path d="M257.251 13.0808C257.251 11.4146 258.598 10.1008 260.265 10.1008C261.861 10.1008 263.208 11.412 263.208 13.0808C263.208 14.7496 261.861 16.0945 260.265 16.0945C258.598 16.0971 257.251 14.7496 257.251 13.0808ZM257.748 18.8257H262.641V38.0791H257.748V18.8257Z" fill="#143228"></path><path d="M267.287 11.3447H272.18V38.0818H267.287V11.3447Z" fill="#143228"></path><path d="M275.764 28.4369C275.764 22.2308 279.345 18.3672 285.196 18.3672C287.041 18.3672 289.275 18.8984 290.868 20.1396V11.3447H295.691V38.0818H290.868V36.6643C289.345 38.0481 287.181 38.5093 285.336 38.5093C279.309 38.5067 275.764 34.5706 275.764 28.4369ZM290.975 32.4068V24.5344C289.803 23.2932 287.995 22.6894 286.222 22.6894C282.711 22.6894 280.69 24.7469 280.69 28.4344C280.69 31.9793 282.781 34.2129 286.15 34.2129C288.031 34.2155 289.77 33.6481 290.975 32.4068Z" fill="#143228"></path><defs><linearGradient id="paint0_linear_364_765" x1="6.40595" y1="51.2686" x2="51.2663" y2="6.40853" gradientUnits="userSpaceOnUse"><stop stop-color="#00B450"></stop><stop offset="1" stop-color="#B4FF50"></stop></linearGradient></defs></svg>