<svg width="24" height="24" viewBox="0 0 24 24" fill="none" xmlns="http://www.w3.org/2000/svg">
<path d="M20 7C20 5.34315 18.6569 4 17 4H7C5.34315 4 4 5.34315 4 7V17C4 18.6569 5.34315 20 7 20H17C18.6569 20 20 18.6569 20 17V7ZM12.3613 7.22461C13.1424 6.44385 14.4085 6.44372 15.1895 7.22461L16.9814 9.0166C17.7621 9.79759 17.7621 11.0638 16.9814 11.8447L12.6475 16.1787L8.62695 16.8486C7.88322 16.9725 7.23854 16.3289 7.36133 15.585L8.02734 11.5586L12.3613 7.22461ZM9.89453 12.5186L9.53906 14.6689L11.6865 14.3105L15.5664 10.4307L13.7754 8.63867L9.89453 12.5186ZM22 17C22 19.7614 19.7614 22 17 22H7C4.23858 22 2 19.7614 2 17V7C2 4.23858 4.23858 2 7 2H17C19.7614 2 22 4.23858 22 7V17Z" fill="black"/>
</svg>
