<svg width="24" height="24" viewBox="0 0 24 24" fill="none" xmlns="http://www.w3.org/2000/svg">
<path d="M20 8C20 6.34338 18.6569 5 17 5H7C5.34308 5 4 6.34338 4 8V13.2646C4.00024 14.9211 5.34322 16.2637 7 16.2637H8V18.042L9.98047 16.4795L10.2529 16.2637H17C18.6568 16.2637 19.9998 14.9211 20 13.2646V8ZM22 13.2646C21.9998 16.0258 19.7612 18.2637 17 18.2637H10.9473L7.78125 20.7627C7.06001 21.3321 6 20.8186 6 19.8994V18.1631C3.71802 17.6998 2.00021 15.6833 2 13.2646V8C2 5.23867 4.23865 3 7 3H17C19.7614 3 22 5.23867 22 8V13.2646Z" fill="black"/>
<path d="M9 11C9 11.5523 8.55228 12 8 12C7.44772 12 7 11.5523 7 11C7 10.4477 7.44772 10 8 10C8.55228 10 9 10.4477 9 11Z" fill="black"/>
<path d="M13 11C13 11.5523 12.5523 12 12 12C11.4477 12 11 11.5523 11 11C11 10.4477 11.4477 10 12 10C12.5523 10 13 10.4477 13 11Z" fill="black"/>
<path d="M17 11C17 11.5523 16.5523 12 16 12C15.4477 12 15 11.5523 15 11C15 10.4477 15.4477 10 16 10C16.5523 10 17 10.4477 17 11Z" fill="black"/>
</svg>
