<svg width="24" height="24" viewBox="0 0 24 24" fill="none" xmlns="http://www.w3.org/2000/svg">
<path d="M17 4C18.6569 4 20 5.34315 20 7V17C20 18.6569 18.6569 20 17 20H7C5.34315 20 4 18.6569 4 17V7C4 5.34315 5.34315 4 7 4H17ZM14.584 12.8203C15.0004 12.3098 14.9709 11.557 14.4951 11.0811L11.707 8.29297C11.3165 7.90244 10.6835 7.90244 10.293 8.29297C9.90244 8.68349 9.90244 9.31651 10.293 9.70703L12.5859 12L10.293 14.293C9.90244 14.6835 9.90244 15.3165 10.293 15.707C10.6835 16.0976 11.3165 16.0976 11.707 15.707L14.4951 12.9189L14.584 12.8203ZM7 2C4.23858 2 2 4.23858 2 7V17C2 19.7614 4.23858 22 7 22H17C19.7614 22 22 19.7614 22 17V7C22 4.23858 19.7614 2 17 2H7Z" fill="black"/>
</svg>
