<svg width="24" height="24" viewBox="0 0 24 24" fill="none" xmlns="http://www.w3.org/2000/svg">
<path d="M7 4C5.34315 4 4 5.34315 4 7L4 17C4 18.6569 5.34315 20 7 20H17C18.6569 20 20 18.6569 20 17V7C20 5.34315 18.6569 4 17 4H7ZM9.41602 12.8203C8.99962 12.3098 9.02914 11.557 9.50488 11.0811L12.293 8.29297C12.6835 7.90244 13.3165 7.90244 13.707 8.29297C14.0976 8.68349 14.0976 9.31651 13.707 9.70703L11.4141 12L13.707 14.293C14.0976 14.6835 14.0976 15.3165 13.707 15.707C13.3165 16.0976 12.6835 16.0976 12.293 15.707L9.50488 12.9189L9.41602 12.8203ZM17 2C19.7614 2 22 4.23858 22 7V17C22 19.7614 19.7614 22 17 22H7C4.23858 22 2 19.7614 2 17L2 7C2 4.23858 4.23858 2 7 2H17Z" fill="black"/>
</svg>
