<svg width="24" height="24" viewBox="0 0 24 24" fill="none" xmlns="http://www.w3.org/2000/svg">
<path d="M7.62469 8.21913C7.19343 7.87412 6.56414 7.94404 6.21913 8.37531C5.87412 8.80657 5.94404 9.43586 6.37531 9.78087L10.7506 13.2811C11.481 13.8655 12.519 13.8655 13.2494 13.2811L17.6247 9.78087C18.056 9.43586 18.1259 8.80657 17.7809 8.37531C17.4359 7.94404 16.8066 7.87412 16.3753 8.21913L12 11.7194L7.62469 8.21913Z" fill="black"/>
<path fill-rule="evenodd" clip-rule="evenodd" d="M7 3C4.23858 3 2 5.23858 2 8V16C2 18.7614 4.23858 21 7 21H17C19.7614 21 22 18.7614 22 16V8C22 5.23858 19.7614 3 17 3H7ZM4 8C4 6.34315 5.34315 5 7 5H17C18.6569 5 20 6.34315 20 8V16C20 17.6569 18.6569 19 17 19H7C5.34315 19 4 17.6569 4 16V8Z" fill="black"/>
</svg>
