<svg width="24" height="24" viewBox="0 0 24 24" fill="none" xmlns="http://www.w3.org/2000/svg">
<path d="M6.21917 10.3752C6.56418 9.94398 7.19347 9.87406 7.62473 10.2191L12 13.7193L16.3753 10.2191C16.8066 9.87406 17.4359 9.94398 17.7809 10.3752C18.1259 10.8065 18.056 11.4358 17.6247 11.7808L13.2494 15.281C12.519 15.8654 11.4811 15.8654 10.7506 15.281L6.37534 11.7808C5.94408 11.4358 5.87416 10.8065 6.21917 10.3752Z" fill="black"/>
<path fill-rule="evenodd" clip-rule="evenodd" d="M13.926 3.41707C12.7266 2.75811 11.2734 2.75811 10.074 3.41707L4.07399 6.71337C2.79486 7.4161 2 8.75971 2 10.2192V16.9999C2 19.2091 3.79086 20.9999 6 20.9999H18C20.2091 20.9999 22 19.2091 22 16.9999V10.2191C22 8.7597 21.2051 7.4161 19.926 6.71337L13.926 3.41707ZM11.037 5.16996C11.6367 4.84048 12.3633 4.84048 12.963 5.16996L18.963 8.46626C19.6026 8.81762 20 9.48943 20 10.2191V16.9999C20 18.1045 19.1046 18.9999 18 18.9999H6C4.89543 18.9999 4 18.1045 4 16.9999V10.2192C4 9.48943 4.39743 8.81762 5.03699 8.46626L11.037 5.16996Z" fill="black"/>
</svg>
