<svg width="24" height="24" viewBox="0 0 24 24" fill="none" xmlns="http://www.w3.org/2000/svg">
<path d="M12 4.80953C14.3006 2.38291 18.024 2.39725 20.3066 4.85445C22.5644 7.28491 22.5645 11.1974 20.3066 13.6279L14.5703 19.8027C13.1824 21.2964 10.8176 21.2964 9.42969 19.8027L3.69336 13.6279C1.43554 11.1974 1.43556 7.28491 3.69336 4.85445C5.97603 2.39725 9.69938 2.38291 12 4.80953ZM18.8418 6.21578C17.336 4.5949 14.9267 4.5949 13.4209 6.21578C12.6535 7.04154 11.3465 7.04154 10.5791 6.21578C9.07335 4.5949 6.66395 4.5949 5.1582 6.21578C3.61363 7.87879 3.61349 10.6037 5.1582 12.2666L10.8945 18.4414C11.4913 19.0837 12.5087 19.0837 13.1055 18.4414L18.8418 12.2666C20.3865 10.6037 20.3864 7.87879 18.8418 6.21578Z" fill="black"/>
</svg>
