<svg width="24" height="24" viewBox="0 0 24 24" fill="none" xmlns="http://www.w3.org/2000/svg">
<path d="M9.97559 3.01449C11.1707 2.10063 12.8293 2.10064 14.0244 3.01449L20.6914 8.11215C21.516 8.74273 21.9999 9.72155 22 10.7596V17.5965C22 19.4374 20.5078 20.9294 18.667 20.9295H17.4443C16.8921 20.9295 16.4443 20.4818 16.4443 19.9295V19.7079C16.4443 19.1556 16.8921 18.7079 17.4443 18.7079H18.667C19.2805 18.7077 19.7773 18.2101 19.7773 17.5965V10.7596C19.7772 10.4138 19.6164 10.0879 19.3418 9.87777L12.6748 4.77914C12.2765 4.47471 11.7235 4.47471 11.3252 4.77914L4.6582 9.87777C4.38358 10.0879 4.2228 10.4138 4.22266 10.7596V17.5965C4.22266 18.2101 4.71951 18.7077 5.33301 18.7079H6.55566C7.1079 18.7079 7.55566 19.1556 7.55566 19.7079V19.9295C7.55566 20.4818 7.1079 20.9295 6.55566 20.9295H5.33301C3.49221 20.9294 2 19.4374 2 17.5965V10.7596C2.00014 9.72155 2.48399 8.74273 3.30859 8.11215L9.97559 3.01449ZM12.1113 11.1522C13.7681 11.1523 15.1113 12.4954 15.1113 14.1522V17.7079C15.1113 19.3646 13.768 20.7077 12.1113 20.7079H11.8887C10.2321 20.7076 8.88873 19.3645 8.88867 17.7079V14.1522C8.88867 12.4955 10.232 11.1524 11.8887 11.1522H12.1113ZM11.7871 13.1571C11.2827 13.2082 10.8887 13.6343 10.8887 14.1522V17.7079L10.8945 17.8104C10.9425 18.2809 11.3165 18.6553 11.7871 18.703L11.8887 18.7079H12.1113L12.2139 18.703C12.6842 18.655 13.0585 18.2807 13.1064 17.8104L13.1113 17.7079V14.1522C13.1113 13.6 12.6635 13.1523 12.1113 13.1522H11.8887L11.7871 13.1571Z" fill="black"/>
</svg>
