<svg width="24" height="24" viewBox="0 0 24 24" fill="none" xmlns="http://www.w3.org/2000/svg">
<path d="M1 17V7C1 3.68629 3.68629 1 7 1V3C4.79086 3 3 4.79086 3 7V17L3.00488 17.2061C3.10865 19.2512 4.7488 20.8913 6.79395 20.9951L7 21H17L17.2061 20.9951C19.3194 20.8879 21 19.14 21 17V7C21 4.79086 19.2091 3 17 3V1C20.3137 1 23 3.68629 23 7V17C23 20.3137 20.3137 23 17 23H7C3.68629 23 1 20.3137 1 17ZM17 1V3H7V1H17Z" fill="black"/>
<path d="M14.709 11.3428C15.1064 10.9702 15.7213 10.9458 16.1465 11.2861L16.2344 11.3652L16.2637 11.3945L22.2325 17.8193C22.6084 18.2239 22.5852 18.8565 22.1807 19.2324C21.7761 19.6083 21.1436 19.5852 20.7676 19.1807L15.4844 13.4941L12.7823 16.623L17.1856 20.7725C17.5875 21.1512 17.6063 21.7836 17.2276 22.1855C16.8488 22.5875 16.2165 22.6063 15.8145 22.2275L9.56352 16.3379L5.20708 20.6953C4.81662 21.0855 4.18348 21.0855 3.79302 20.6953C3.40249 20.3048 3.40249 19.6708 3.79302 19.2803L8.78325 14.29L8.7979 14.2773C9.19504 13.9095 9.79527 13.8878 10.2159 14.2119L10.2979 14.2812L10.2989 14.2832L11.3252 15.25L14.628 11.4277L14.709 11.3428ZM10 9C10 8.44772 9.55233 8 9.00005 8C8.44777 8 8.00005 8.44772 8.00005 9C8.00005 9.55228 8.44777 10 9.00005 10C9.55233 10 10 9.55228 10 9ZM12 9C12 10.6569 10.6569 12 9.00005 12C7.3432 12 6.00005 10.6569 6.00005 9C6.00005 7.34315 7.3432 6 9.00005 6C10.6569 6 12 7.34315 12 9Z" fill="black"/>
</svg>
