<svg width="24" height="24" viewBox="0 0 24 24" fill="none" xmlns="http://www.w3.org/2000/svg">
<path d="M9 16C9 15.4477 8.55228 15 8 15H5C4.44772 15 4 15.4477 4 16V19C4 19.5523 4.44772 20 5 20H8C8.55228 20 9 19.5523 9 19V16ZM20 17.5C20 16.1193 18.8807 15 17.5 15C16.1193 15 15 16.1193 15 17.5C15 18.8807 16.1193 20 17.5 20C18.8807 20 20 18.8807 20 17.5ZM20 6C20 4.34315 18.6569 3 17 3H7C5.34315 3 4 4.34315 4 6C4 7.65685 5.34315 9 7 9H17C18.6569 9 20 7.65685 20 6ZM22 17.5C22 19.9853 19.9853 22 17.5 22C15.0147 22 13 19.9853 13 17.5C13 15.0147 15.0147 13 17.5 13C19.9853 13 22 15.0147 22 17.5ZM11 19C11 20.6569 9.65685 22 8 22H5C3.34315 22 2 20.6569 2 19V16C2 14.3431 3.34315 13 5 13H8C9.65685 13 11 14.3431 11 16V19ZM22 6C22 8.76142 19.7614 11 17 11H7C4.23858 11 2 8.76142 2 6C2 3.23858 4.23858 1 7 1H17C19.7614 1 22 3.23858 22 6Z" fill="black"/>
</svg>
