<svg width="24" height="24" viewBox="0 0 24 24" fill="none" xmlns="http://www.w3.org/2000/svg">
<path d="M15.9996 6C15.9996 5.44772 15.5519 5 14.9996 5H8.99961C8.4475 5.00021 7.99961 5.44784 7.99961 6V12.9795L5.90879 16H18.0914L15.9996 12.9795V6ZM17.9996 12.3535L19.7359 14.8613C20.6543 16.1878 19.7047 18 18.0914 18H12.9996V21C12.9996 21.5523 12.5519 22 11.9996 22C11.4475 21.9998 10.9996 21.5522 10.9996 21V18H5.90879C4.29546 18 3.34594 16.1878 4.26426 14.8613L5.99961 12.3535V6C5.99961 4.34327 7.34293 3.00021 8.99961 3H14.9996C16.6565 3 17.9996 4.34315 17.9996 6V12.3535Z" fill="black"/>
</svg>
