<svg width="24" height="24" viewBox="0 0 24 24" fill="none" xmlns="http://www.w3.org/2000/svg">
<path d="M17.9134 5C18.7427 5 19.4326 5.43705 19.8196 6.0498C20.2236 6.68963 20.3119 7.5445 19.9046 8.31152L14.0393 19.3506C13.0438 21.2245 10.2468 20.8106 9.83718 18.7285L8.69069 12.9004L4.53054 8.87402C3.07504 7.46486 4.07297 5 6.0989 5H17.9134ZM10.7249 12.8838L11.7991 18.3428C11.814 18.4185 11.8441 18.4578 11.8714 18.4824C11.9038 18.5116 11.9526 18.5361 12.012 18.5449C12.0713 18.5536 12.1249 18.5439 12.1643 18.5254C12.1975 18.5097 12.2376 18.481 12.2737 18.4131L17.4182 8.72656L10.7249 12.8838ZM6.0989 7C5.87046 7 5.75811 7.2776 5.92214 7.43652L9.74538 11.1387L16.4085 7H6.0989Z" fill="black"/>
</svg>
