<svg width="24" height="24" viewBox="0 0 24 24" fill="none" xmlns="http://www.w3.org/2000/svg">
<path d="M16.5 2C18.433 2 20 3.567 20 5.5C20 7.433 18.433 9 16.5 9C15.5976 9 14.775 8.65848 14.1543 8.09766L8.88574 11.6104C8.96019 11.8944 9 12.1926 9 12.5C9 12.8071 8.96003 13.1049 8.88574 13.3887L13.6035 16.5332C14.2333 15.6075 15.296 15 16.5 15C18.433 15 20 16.567 20 18.5C20 20.433 18.433 22 16.5 22C14.5787 22 13.0189 20.452 13 18.5352L7.84473 15.0977C7.22411 15.6582 6.40214 16 5.5 16C3.567 16 2 14.433 2 12.5C2 10.567 3.567 9 5.5 9C6.4019 9 7.22417 9.34109 7.84473 9.90137L13.1133 6.38867C13.039 6.10493 13 5.80702 13 5.5C13 3.567 14.567 2 16.5 2ZM16.5 17C15.6716 17 15 17.6716 15 18.5C15 19.3284 15.6716 20 16.5 20C17.3284 20 18 19.3284 18 18.5C18 17.6716 17.3284 17 16.5 17ZM5.5 11C4.67157 11 4 11.6716 4 12.5C4 13.3284 4.67157 14 5.5 14C6.32843 14 7 13.3284 7 12.5C7 11.6716 6.32843 11 5.5 11ZM16.5 4C15.6716 4 15 4.67157 15 5.5C15 6.32843 15.6716 7 16.5 7C17.3284 7 18 6.32843 18 5.5C18 4.67157 17.3284 4 16.5 4Z" fill="black"/>
</svg>
