<svg width="24" height="24" viewBox="0 0 24 24" fill="none" xmlns="http://www.w3.org/2000/svg">
<path d="M10.1494 2.87593C10.8282 1.22153 13.1718 1.22154 13.8506 2.87593L15.5742 7.08003L20.1055 7.42085C21.8888 7.55512 22.6129 9.78358 21.249 10.9404L17.7842 13.8789L18.8594 18.2939C19.2827 20.0314 17.3869 21.4085 15.8652 20.4687L12 18.081L8.13478 20.4687C6.61315 21.4085 4.71736 20.0314 5.14064 18.2939L6.21583 13.8789L2.75099 10.9404C1.38714 9.78359 2.11123 7.55511 3.89454 7.42085L8.42579 7.08003L10.1494 2.87593ZM10.2764 7.83882C9.98909 8.53929 9.33017 9.0174 8.57521 9.07417L4.04493 9.41499L7.50978 12.3535C8.08711 12.8431 8.33836 13.617 8.15919 14.3525L7.08302 18.7675L10.9492 16.3798C11.5934 15.982 12.4067 15.982 13.0508 16.3798L16.917 18.7675L15.8408 14.3525C15.6617 13.617 15.9129 12.8431 16.4902 12.3535L19.9551 9.41499L15.4248 9.07417C14.6699 9.0174 14.0109 8.53929 13.7236 7.83882L12 3.63569L10.2764 7.83882Z" fill="black"/>
</svg>
