<svg width="24" height="24" viewBox="0 0 24 24" fill="none" xmlns="http://www.w3.org/2000/svg">
<path d="M9.63845 10.3287C9.33931 10.6952 9.33959 11.2243 9.63845 11.591L9.70681 11.6677L12.2431 14.204L12.3198 14.2724C12.6865 14.5713 13.2155 14.5715 13.5821 14.2724L13.6574 14.204L19.578 8.28336C19.6418 8.21944 19.6865 8.1399 19.7085 8.05341L19.7237 7.96502L19.984 4.2244C19.9924 4.10503 19.895 4.00476 19.7755 4.01033L15.9527 4.19125C15.8284 4.19714 15.7106 4.24966 15.6226 4.33765L9.70681 10.2535L9.63845 10.3287ZM15.0716 15.6182C13.9 16.7895 12.0004 16.7897 10.8289 15.6182L8.2926 13.0819C7.12112 11.9104 7.12129 10.0108 8.2926 8.83924L14.2084 2.92343C14.6483 2.48351 15.2366 2.22297 15.8581 2.19354L19.6809 2.01262L19.9246 2.01469C21.046 2.08416 21.9389 2.99748 21.9831 4.12013L21.9797 4.36389L21.718 8.10451C21.6759 8.70571 21.4183 9.27136 20.9922 9.69757L15.0716 15.6182Z" fill="black"/>
<path d="M10 3C10 2.44772 9.55228 2 9 2H8C4.68629 2 2 4.68629 2 8V16C2 19.3137 4.68629 22 8 22H16C19.3137 22 22 19.3137 22 16V15C22 14.4477 21.5523 14 21 14C20.4477 14 20 14.4477 20 15V16C20 18.2091 18.2091 20 16 20H8C5.79086 20 4 18.2091 4 16V8C4 5.79086 5.79086 4 8 4H9C9.55228 4 10 3.55228 10 3Z" fill="black"/>
<path d="M18 7C18 7.55228 17.5523 8 17 8C16.4477 8 16 7.55228 16 7C16 6.44772 16.4477 6 17 6C17.5523 6 18 6.44772 18 7Z" fill="black"/>
</svg>
