<svg width="24" height="24" viewBox="0 0 24 24" fill="none" xmlns="http://www.w3.org/2000/svg">
<path d="M16.8398 7L17.0029 7.00391C18.6724 7.09279 19.9609 8.54252 19.831 10.2305L19.1387 19.2305C19.0182 20.7933 17.7149 22 16.1474 22H7.85252C6.28505 22 4.98174 20.7933 4.86131 19.2305L4.16893 10.2305C4.0349 8.48809 5.41261 7 7.16014 7H16.8398ZM7.05174 9.00586C6.52164 9.06263 6.12119 9.53276 6.16307 10.0771L6.85545 19.0771C6.89576 19.5979 7.33015 20 7.85252 20H16.1474C16.6698 20 17.1042 19.5979 17.1445 19.0771L17.8369 10.0771C17.8788 9.53277 17.4783 9.06263 16.9482 9.00586L16.8398 9H7.16014L7.05174 9.00586Z" fill="black"/>
<path d="M19.5 4C20.0523 4 20.5 4.44772 20.5 5C20.5 5.55228 20.0523 6 19.5 6H4.5C3.94772 6 3.5 5.55228 3.5 5C3.5 4.44772 3.94772 4 4.5 4H19.5Z" fill="black"/>
<path d="M11 3V4H13V3H11ZM15 6H9V3C9 1.89543 9.89543 1 11 1H13C14.1046 1 15 1.89543 15 3V6Z" fill="black"/>
</svg>
