<svg width="24" height="24" viewBox="0 0 24 24" fill="none" xmlns="http://www.w3.org/2000/svg">
<path d="M18 19.5C18 16.4624 15.5376 14 12.5 14H11.5C8.46243 14 6 16.4624 6 19.5V20H18V19.5ZM14 7C14 5.89543 13.1046 5 12 5C10.8954 5 10 5.89543 10 7C10 8.10457 10.8954 9 12 9C13.1046 9 14 8.10457 14 7ZM20 20C20 21.1046 19.1046 22 18 22H6C4.89543 22 4 21.1046 4 20V19.5C4 15.3579 7.35786 12 11.5 12H12.5C16.6421 12 20 15.3579 20 19.5V20ZM16 7C16 9.20914 14.2091 11 12 11C9.79086 11 8 9.20914 8 7C8 4.79086 9.79086 3 12 3C14.2091 3 16 4.79086 16 7Z" fill="black"/>
</svg>
